<svg width="532" height="375" viewBox="0 0 532 375" fill="none" xmlns="http://www.w3.org/2000/svg">
<path d="M23.6964 143.91C24.205 175.581 35.9431 179.01 50.3579 175.707C66.8251 171.933 80.3408 160.106 87.0022 144.457L91.5963 133.665C94.6505 126.49 94.7533 118.386 91.8821 111.135C89.0109 103.883 83.401 98.0794 76.2863 94.9994H76.2863C72.7635 93.4743 68.9773 92.6639 65.1439 92.6145C61.3106 92.565 57.5051 93.2774 53.9447 94.7111C50.3844 96.1448 47.1389 98.2716 44.3937 100.97C41.6484 103.669 39.457 106.886 37.9448 110.439C23.1617 116.295 20.2421 128.419 23.6964 143.91Z" fill="#2F2E41"/>
<path d="M116.385 80.167L120.809 72.6169C121.35 71.695 121.676 70.6616 121.764 69.5943C121.851 68.5271 121.698 67.4536 121.316 66.4546C120.933 65.4555 120.332 64.5567 119.556 63.8257C118.78 63.0946 117.85 62.5503 116.835 62.2335C115.764 61.8991 114.63 61.8276 113.526 62.025C112.423 62.2224 111.382 62.6829 110.491 63.3683C109.599 64.0536 108.883 64.9438 108.402 65.9648C107.921 66.9857 107.689 68.1078 107.725 69.2376L107.985 77.3533L87.1928 134.817L98.5313 137.204L116.385 80.167Z" fill="#9F616A"/>
<path d="M6.99731 221.824L1.5515 228.661C0.886496 229.496 0.417608 230.472 0.18002 231.516C-0.0575679 232.56 -0.0576885 233.644 0.179666 234.688C0.41702 235.732 0.885688 236.708 1.55051 237.543C2.21533 238.378 3.05904 239.05 4.01835 239.51C5.03088 239.995 6.14364 240.228 7.26391 240.192C8.38418 240.155 9.4795 239.848 10.4586 239.298C11.4377 238.748 12.2722 237.97 12.8925 237.028C13.5129 236.087 13.9011 235.009 14.0249 233.886L14.9141 225.816L43.6123 171.926L32.7268 167.934L6.99731 221.824Z" fill="#9F616A"/>
<path d="M40.6435 278.708L41.4451 288.418L41.6331 290.683L94.9327 285.514C96.7699 285.305 98.5323 284.662 100.077 283.637C101.621 282.612 102.904 281.234 103.821 279.615C104.738 277.996 105.263 276.182 105.354 274.319C105.445 272.457 105.099 270.6 104.344 268.898L87.1545 231.684L81.2169 218.83L55.4875 212.842C34.2706 229.219 53.3598 247.292 77.3773 265.574C78.3174 266.293 79.2675 267.012 80.2273 267.73L40.6435 278.708Z" fill="#2F2E41"/>
<path d="M22.6839 312.332C23.3333 312.426 23.9957 312.349 24.6075 312.111C25.2193 311.872 25.76 311.479 26.1778 310.969L43.6123 289.685L42.6227 279.706L36.678 276.109C36.1918 275.815 35.6478 275.631 35.0839 275.57C34.52 275.509 33.9498 275.573 33.4128 275.756C32.8758 275.94 32.3849 276.24 31.9743 276.634C31.5636 277.028 31.243 277.508 31.0348 278.04L19.6635 307.091C19.4511 307.634 19.3634 308.218 19.4069 308.799C19.4504 309.381 19.6239 309.945 19.9146 310.45C20.2052 310.954 20.6054 311.385 21.085 311.711C21.5647 312.037 22.1113 312.25 22.6839 312.332Z" fill="#2F2E41"/>
<path opacity="0.2" d="M37.6747 276.712L38.6643 288.687L41.4451 288.418L91.9639 283.518C93.8011 283.309 95.5636 282.666 97.108 281.641C98.6524 280.616 99.9352 279.238 100.852 277.619C101.769 276 102.294 274.186 102.385 272.324C102.476 270.461 102.13 268.604 101.375 266.902L87.1545 234.797V231.684L81.2169 218.83L55.4875 212.842C34.2706 229.219 53.3598 247.292 77.3773 265.574L77.2586 265.734L37.6747 276.712Z" fill="black"/>
<path d="M17.7359 308.34C18.3854 308.434 19.0477 308.357 19.6595 308.119C20.2713 307.88 20.812 307.487 21.2298 306.977L38.6643 285.693L37.6747 275.714L31.7301 272.117C31.2438 271.823 30.6998 271.639 30.136 271.578C29.5721 271.517 29.0019 271.581 28.4648 271.764C27.9278 271.948 27.437 272.248 27.0263 272.642C26.6157 273.037 26.2951 273.516 26.0869 274.048L14.7156 303.099C14.5032 303.642 14.4154 304.226 14.4589 304.807C14.5024 305.389 14.676 305.953 14.9666 306.458C15.2573 306.962 15.6574 307.393 16.1371 307.719C16.6167 308.045 17.1633 308.258 17.7359 308.34Z" fill="#2F2E41"/>
<path d="M35.6956 274.716L36.6851 286.691L89.9847 281.52C91.8219 281.312 93.5842 280.669 95.1287 279.644C96.6732 278.619 97.9562 277.242 98.8735 275.623C99.7908 274.005 100.317 272.19 100.408 270.328C100.5 268.466 100.154 266.609 99.4 264.907L85.1753 232.801V214.838L50.5395 208.85C28.4877 225.87 49.9737 244.723 75.2794 263.738L35.6956 274.716Z" fill="#2F2E41"/>
<path d="M69.3418 134.003C77.5399 134.003 84.1857 127.301 84.1857 119.034C84.1857 110.766 77.5399 104.064 69.3418 104.064C61.1437 104.064 54.4979 110.766 54.4979 119.034C54.4979 127.301 61.1437 134.003 69.3418 134.003Z" fill="#9F616A"/>
<path d="M49.5499 143.983L70.3314 157.954L88.1441 153.963L78.2482 143.983V129.014L62.4146 128.016C62.0822 133.993 58.6856 139.464 49.5499 143.983Z" fill="#9F616A"/>
<path d="M46.5811 213.84L85.1753 218.83L94.0817 176.916C98.2193 165.79 95.8453 155.96 88.1849 147.182C87.8919 145.705 87.1114 144.372 85.9707 143.399C84.8299 142.426 83.3961 141.872 81.903 141.826L78.2481 141.987C78.6616 155.222 68.9919 152.035 54.4979 140.989L52.7477 141.519C50.4852 142.203 48.5428 143.686 47.2758 145.697C46.0088 147.707 45.5021 150.11 45.8482 152.467L47.4441 163.33C48.1208 167.637 49.172 171.875 50.5856 175.996C54.5425 187.921 53.1285 200.547 46.5811 213.84Z" fill="#6C63FF"/>
<path d="M28.7684 168.932L46.5811 174.92L54.4979 145.979L51.8158 144.75C49.5922 143.73 47.0673 143.602 44.7536 144.392C42.4398 145.181 40.5105 146.828 39.357 149L28.7684 168.932Z" fill="#6C63FF"/>
<path d="M81.2169 141.987L91.1131 152.964L102.988 134.003L88.1439 126.02L81.2169 141.987Z" fill="#6C63FF"/>
<path d="M52.0239 114.543C61.3518 118.09 71.3066 117.722 81.7117 114.543V102.568H52.0239V114.543Z" fill="#2F2E41"/>
<path d="M514.982 320.115L504.749 324.415L436.525 230.674L387.063 326.135L374.271 323.555L411.794 191.974H455.287L514.982 320.115Z" fill="#2F2E41"/>
<path d="M528.712 341.982C528.144 342.138 527.552 342.18 526.969 342.104C526.385 342.028 525.823 341.837 525.313 341.541L503.731 329.01C503.149 328.672 502.651 328.203 502.277 327.64C501.903 327.076 501.663 326.434 501.575 325.762C501.487 325.09 501.553 324.406 501.769 323.764C501.985 323.122 502.345 322.539 502.82 322.06L504.749 320.115L514.982 319.255L530.626 334.4C531.195 334.951 531.609 335.644 531.826 336.409C532.043 337.174 532.054 337.983 531.859 338.754C531.665 339.525 531.271 340.23 530.718 340.797C530.165 341.364 529.473 341.773 528.712 341.982Z" fill="#2F2E41"/>
<path d="M361.395 345.423C361.962 345.579 362.554 345.62 363.138 345.544C363.721 345.468 364.283 345.277 364.793 344.981L386.375 332.45C386.957 332.112 387.455 331.643 387.829 331.08C388.203 330.516 388.443 329.874 388.531 329.202C388.619 328.53 388.553 327.846 388.337 327.204C388.121 326.563 387.762 325.979 387.286 325.5L385.358 323.555L375.124 322.695L359.48 337.84C358.911 338.391 358.497 339.084 358.28 339.849C358.064 340.614 358.052 341.423 358.247 342.194C358.442 342.965 358.835 343.67 359.388 344.237C359.941 344.804 360.634 345.213 361.395 345.423Z" fill="#2F2E41"/>
<path d="M382.799 55.234L378.535 57.814L369.699 43.3337C369.156 42.4444 368.834 41.4365 368.758 40.3951C368.683 39.3536 368.857 38.3091 369.266 37.3497C369.674 36.3903 370.306 35.544 371.107 34.8824C371.908 34.2207 372.855 33.763 373.869 33.5479C374.769 33.3566 375.701 33.3618 376.599 33.5632C377.498 33.7645 378.344 34.1573 379.08 34.7153C379.816 35.2733 380.425 35.9834 380.866 36.7982C381.308 37.613 381.571 38.5136 381.639 39.4395L382.799 55.234Z" fill="#FFB9B9"/>
<path d="M500.917 167.97L502.686 163.284L518.509 169.154C519.481 169.514 520.352 170.105 521.05 170.876C521.748 171.648 522.252 172.577 522.519 173.586C522.786 174.595 522.808 175.654 522.585 176.674C522.361 177.693 521.897 178.643 521.233 179.444C520.642 180.156 519.907 180.733 519.077 181.135C518.247 181.537 517.342 181.756 516.421 181.776C515.501 181.797 514.587 181.619 513.74 181.253C512.894 180.888 512.134 180.345 511.513 179.66L500.917 167.97Z" fill="#FFB9B9"/>
<path d="M433.967 106.834C441.032 106.834 446.759 101.059 446.759 93.9342C446.759 86.8097 441.032 81.0342 433.967 81.0342C426.902 81.0342 421.175 86.8097 421.175 93.9342C421.175 101.059 426.902 106.834 433.967 106.834Z" fill="#FFB9B9"/>
<path d="M445.053 121.454H427.144V101.674L442.495 99.9541L445.053 121.454Z" fill="#FFB9B9"/>
<path d="M457.845 197.134H409.236C410.95 169.783 412.307 143.352 409.236 128.334L412.062 114.653C412.454 112.757 413.539 111.079 415.101 109.953C416.663 108.828 418.588 108.336 420.494 108.576L427.144 109.414C431.649 117.4 437.092 117.323 443.348 110.274H451.359C452.427 110.274 453.484 110.489 454.469 110.906C455.454 111.323 456.346 111.934 457.094 112.703C457.841 113.473 458.429 114.384 458.823 115.385C459.217 116.387 459.41 117.457 459.388 118.534C461.475 128.17 462.17 138.06 461.45 147.897L457.845 197.134Z" fill="#3F3D56"/>
<path d="M375.977 55.2339L382.799 51.7942L419.469 112.854L409.236 128.334L375.977 55.2339Z" fill="#3F3D56"/>
<path d="M501.014 170.417L506.844 165.458L475.864 121.679C472.833 117.396 468.655 114.073 463.818 112.098C458.982 110.124 453.688 109.58 448.556 110.53L447.579 110.711L459.293 131.384L474.722 143.165L501.014 170.417Z" fill="#3F3D56"/>
<path d="M448.761 86.3191C448.761 86.3191 451.151 81.016 444.936 78.6054C444.936 78.6054 439.678 69.9276 429.16 75.7128C429.16 75.7128 421.989 78.6054 421.989 86.3191C421.989 94.0327 419.599 95.479 419.599 95.479C419.599 95.479 423.158 91.7963 424.115 88.9037C425.071 86.0111 432.507 85.3549 435.375 88.2475C438.243 91.1401 445.414 90.658 445.414 90.658L444.936 101.264C444.936 101.264 447.327 94.9969 448.283 94.9969C449.239 94.9969 450.195 86.3191 448.761 86.3191Z" fill="#2F2E41"/>
<path d="M447.58 375C490.807 375 525.85 373.159 525.85 370.889C525.85 368.618 490.807 366.778 447.58 366.778C404.352 366.778 369.309 368.618 369.309 370.889C369.309 373.159 404.352 375 447.58 375Z" fill="#E6E6E6"/>
<path d="M56.7858 373.062C79.6347 373.062 98.1574 372.089 98.1574 370.889C98.1574 369.689 79.6347 368.716 56.7858 368.716C33.9369 368.716 15.4142 369.689 15.4142 370.889C15.4142 372.089 33.9369 373.062 56.7858 373.062Z" fill="#E6E6E6"/>
<path d="M372.878 72.3294L121.367 95.0612C120.132 95.1714 118.905 94.7831 117.953 93.9814C117.002 93.1798 116.404 92.0304 116.292 90.7852L110.701 27.8689C110.592 26.6235 110.977 25.3852 111.772 24.4258C112.566 23.4663 113.706 22.864 114.941 22.7509L366.451 0.0191012C367.686 -0.0910395 368.914 0.297293 369.866 1.09891C370.817 1.90053 371.414 3.04998 371.526 4.29511L377.118 67.2115C377.227 68.4569 376.842 69.6951 376.047 70.6546C375.252 71.614 374.113 72.2163 372.878 72.3294Z" fill="#6C63FF"/>
<path d="M259.509 45.982C258.209 44.5473 256.599 43.4815 254.827 42.8829C252.647 42.197 250.422 41.702 248.174 41.4028L246.55 28.0005C249.967 28.1376 253.296 29.2976 256.161 31.349L257.988 25.2425C256.364 24.0249 254.559 23.1174 252.655 22.561C250.542 21.9305 248.366 21.6047 246.183 21.5925L245.36 14.7995L239.501 15.5096L240.332 22.3693C238.103 22.9168 236.016 23.9693 234.21 25.4568C232.578 26.7965 231.28 28.546 230.426 30.5557C229.616 32.5142 229.336 34.6862 229.619 36.8265C229.8 39.1611 230.703 41.377 232.185 43.1204C233.536 44.6215 235.216 45.7352 237.065 46.3564C239.281 47.0659 241.545 47.5761 243.833 47.8817L245.39 60.725C241.397 60.8834 237.434 59.7235 234.034 57.4016L232.208 63.5164C234.111 64.8359 236.21 65.791 238.408 66.3384C240.818 66.9454 243.289 67.1931 245.75 67.0745L246.566 73.809L252.425 73.099L251.594 66.2393C254.802 65.4625 257.671 63.5878 259.773 60.8956C260.695 59.681 261.369 58.2697 261.752 56.7512C262.134 55.2326 262.217 53.6399 261.996 52.0738C261.821 49.8137 260.945 47.6687 259.509 45.982ZM242.951 40.5964C241.467 40.3039 240.047 39.6988 238.774 38.8163C238.266 38.4357 237.84 37.9406 237.528 37.3664C237.216 36.7922 237.026 36.1532 236.97 35.4954C236.747 34.0141 237.08 32.5089 237.896 31.3102C238.807 30.0457 240.07 29.1258 241.506 28.6794L242.951 40.5964ZM253.833 57.2969C252.975 58.5087 251.774 59.3873 250.404 59.8039L249.065 48.7549C250.45 48.9787 251.782 49.4998 252.984 50.2869C253.443 50.6163 253.828 51.0511 254.112 51.5591C254.396 52.0672 254.57 52.6353 254.623 53.2214C254.85 54.6471 254.568 56.103 253.833 57.2969Z" fill="#DADADA"/>
</svg>
